<?xml version="1.0" encoding="iso-8859-1"?>
<!-- Generator: Adobe Illustrator 19.0.0, SVG Export Plug-In . SVG Version: 6.00 Build 0)  -->
<svg version="1.1" id="Layer_1" xmlns="http://www.w3.org/2000/svg" xmlns:xlink="http://www.w3.org/1999/xlink" x="0px" y="0px"
	 viewBox="0 0 496 496" style="enable-background:new 0 0 496 496;" xml:space="preserve">
<g>
	<g>
		<g>
			<path d="M407.312,348l14.344-14.344l-11.312-11.312L396,336.688l-15.096-15.096C393.032,299.76,400,274.688,400,248
				c0-2.28-0.24-4.496-0.344-6.752C437.248,232.408,464,199.128,464,160h-16c0,30.896-20.624,57.32-49.904,65.192
				C387.032,152.184,324.04,96,248,96c-2.28,0-4.496,0.24-6.752,0.344C232.408,58.752,199.128,32,160,32v16
				c30.896,0,57.32,20.624,65.192,49.904C152.184,108.968,96,171.96,96,248c0,2.28,0.24,4.496,0.344,6.752
				C58.752,263.592,32,296.872,32,336h16c0-30.896,20.624-57.32,49.904-65.192C108.968,343.816,171.96,400,248,400
				c26.688,0,51.76-6.968,73.584-19.096L336.68,396l-14.344,14.344l11.312,11.312l14.344-14.344L424.4,483.72
				c7.92,7.92,18.456,12.28,29.656,12.28C477.184,496,496,477.184,496,454.064c0-11.2-4.36-21.736-12.28-29.656L407.312,348z
				 M248,112c68.24,0,124.728,50.56,134.384,116.16l-15.768,2.624C358.232,172.76,308.312,128,248,128
				c-0.408,0-0.808,0.056-1.216,0.064l-2.64-15.864C245.44,112.16,246.696,112,248,112z M248,144c57.344,0,104,46.656,104,104
				s-46.656,104-104,104s-104-46.656-104-104S190.656,144,248,144z M112,248c0-68.24,50.56-124.728,116.16-134.384l2.624,15.768
				C172.76,137.768,128,187.688,128,248c0,0.408,0.056,0.808,0.064,1.216l-15.864,2.64C112.16,250.56,112,249.304,112,248z M248,384
				c-68.24,0-124.728-50.56-134.384-116.16l15.768-2.624C137.768,323.24,187.688,368,248,368c66.168,0,120-53.832,120-120
				c0-0.408-0.056-0.808-0.064-1.216l15.864-2.64c0.04,1.296,0.2,2.552,0.2,3.856C384,322.992,322.992,384,248,384z M335.44,372.128
				c14.224-10.048,26.64-22.464,36.688-36.688l12.56,12.56L348,384.688L335.44,372.128z M454.064,480
				c-6.928,0-13.448-2.696-18.344-7.592L359.312,396L396,359.312l76.408,76.408c4.896,4.896,7.592,11.416,7.592,18.344
				C480,468.368,468.368,480,454.064,480z"/>
			<path d="M424,144c39.704,0,72-32.296,72-72S463.704,0,424,0c-39.704,0-72,32.296-72,72S384.296,144,424,144z M448,122.52
				c-7.288,3.472-15.408,5.48-24,5.48c-8.592,0-16.712-2.008-24-5.48V112c0-13.232,10.768-24,24-24s24,10.768,24,24V122.52z M408,56
				c0-8.824,7.176-16,16-16c8.824,0,16,7.176,16,16s-7.176,16-16,16C415.176,72,408,64.824,408,56z M424,16
				c30.872,0,56,25.128,56,56c0,15.256-6.152,29.088-16.08,39.2c-0.272-13.448-7.144-25.312-17.568-32.36
				C452.288,73.032,456,64.952,456,56c0-17.648-14.352-32-32-32s-32,14.352-32,32c0,8.952,3.712,17.032,9.648,22.84
				c-10.432,7.056-17.304,18.912-17.568,32.36C374.152,101.088,368,87.256,368,72C368,41.128,393.128,16,424,16z"/>
			<path d="M72,144c39.704,0,72-32.296,72-72S111.704,0,72,0S0,32.296,0,72S32.296,144,72,144z M96,122.52
				c-7.288,3.472-15.408,5.48-24,5.48s-16.712-2.008-24-5.48V112c0-13.232,10.768-24,24-24s24,10.768,24,24V122.52z M56,56
				c0-8.824,7.176-16,16-16s16,7.176,16,16s-7.176,16-16,16S56,64.824,56,56z M72,16c30.872,0,56,25.128,56,56
				c0,15.256-6.152,29.088-16.08,39.2c-0.272-13.448-7.144-25.312-17.568-32.36C100.288,73.032,104,64.952,104,56
				c0-17.648-14.352-32-32-32S40,38.352,40,56c0,8.952,3.712,17.032,9.648,22.84C39.224,85.896,32.352,97.752,32.08,111.2
				C22.152,101.088,16,87.256,16,72C16,41.128,41.128,16,72,16z"/>
			<path d="M72,352c-39.704,0-72,32.296-72,72c0,39.704,32.296,72,72,72s72-32.296,72-72C144,384.296,111.704,352,72,352z
				 M96,474.52c-7.288,3.472-15.408,5.48-24,5.48s-16.712-2.008-24-5.48V464c0-13.232,10.768-24,24-24s24,10.768,24,24V474.52z
				 M56,408c0-8.824,7.176-16,16-16s16,7.176,16,16c0,8.824-7.176,16-16,16S56,416.824,56,408z M111.92,463.2
				c-0.272-13.448-7.144-25.312-17.568-32.36C100.288,425.032,104,416.952,104,408c0-17.648-14.352-32-32-32s-32,14.352-32,32
				c0,8.952,3.712,17.032,9.648,22.84c-10.424,7.056-17.296,18.912-17.568,32.36C22.152,453.088,16,439.256,16,424
				c0-30.872,25.128-56,56-56s56,25.128,56,56C128,439.256,121.848,453.088,111.92,463.2z"/>
			<path d="M160,232v40v8v8h176v-8v-8v-72h-48v72h-16V168h-48v104h-16v-40H160z M304,216h16v56h-16V216z M240,184h16v88h-16V184z
				 M192,272h-16v-24h16V272z"/>
		</g>
	</g>
</g>
<g>
</g>
<g>
</g>
<g>
</g>
<g>
</g>
<g>
</g>
<g>
</g>
<g>
</g>
<g>
</g>
<g>
</g>
<g>
</g>
<g>
</g>
<g>
</g>
<g>
</g>
<g>
</g>
<g>
</g>
</svg>
