<?xml version="1.0" encoding="iso-8859-1"?>
<!-- Generator: Adobe Illustrator 19.0.0, SVG Export Plug-In . SVG Version: 6.00 Build 0)  -->
<svg version="1.1" id="Capa_1" xmlns="http://www.w3.org/2000/svg" xmlns:xlink="http://www.w3.org/1999/xlink" x="0px" y="0px"
	 viewBox="0 0 512 512" style="enable-background:new 0 0 512 512;" xml:space="preserve">
<g>
	<g>
		<path d="M357,140H155c-8.284,0-15,6.716-15,15v202c0,8.284,6.716,15,15,15h202c8.284,0,15-6.716,15-15V155
			C372,146.716,365.284,140,357,140z M342,342H170V170h172V342z"/>
	</g>
</g>
<g>
	<g>
		<path d="M497,271c8.284,0,15-6.716,15-15s-6.716-15-15-15h-65v-81h65c8.284,0,15-6.716,15-15s-6.716-15-15-15h-65V95
			c0-8.284-6.716-15-15-15h-35V15c0-8.284-6.716-15-15-15s-15,6.716-15,15v65h-81V15c0-8.284-6.716-15-15-15s-15,6.716-15,15v65h-81
			V15c0-8.284-6.716-15-15-15s-15,6.716-15,15v65H95c-8.284,0-15,6.716-15,15v35H15c-8.284,0-15,6.716-15,15s6.716,15,15,15h65v81
			H15c-8.284,0-15,6.716-15,15s6.716,15,15,15h65v81H15c-8.284,0-15,6.716-15,15s6.716,15,15,15h65v35c0,8.284,6.716,15,15,15h35v65
			c0,8.284,6.716,15,15,15s15-6.716,15-15v-65h81v65c0,8.284,6.716,15,15,15s15-6.716,15-15v-65h81v65c0,8.284,6.716,15,15,15
			s15-6.716,15-15v-65h35c8.284,0,15-6.716,15-15v-35h65c8.284,0,15-6.716,15-15s-6.716-15-15-15h-65v-81H497z M402,402H110V110h292
			V402z"/>
	</g>
</g>
<g>
	<g>
		<path d="M281,241h-50c-8.284,0-15,6.716-15,15s6.716,15,15,15h50c8.284,0,15-6.716,15-15S289.284,241,281,241z"/>
	</g>
</g>
<g>
</g>
<g>
</g>
<g>
</g>
<g>
</g>
<g>
</g>
<g>
</g>
<g>
</g>
<g>
</g>
<g>
</g>
<g>
</g>
<g>
</g>
<g>
</g>
<g>
</g>
<g>
</g>
<g>
</g>
</svg>
